PathFileType	4	(X/Y/Z)	Walk1_0-155.trc
DataRate	CameraRate	NumFrames	NumMarkers	Units	OrigDataRate	OrigDataStartFrame	OrigNumFrames
30	30	9	22	m	30	0	155
Frame#	Time	Hip			RHip			RKnee			RAnkle			RBigToe			RSmallToe			RHeel			LHip			LKnee			LAnkle			LBigToe			LSmallToe			LHeel			Neck			Head			Nose			RShoulder			RElbow			RWrist			LShoulder			LElbow			LWrist		
		X1	Y1	Z1	X2	Y2	Z2	X3	Y3	Z3	X4	Y4	Z4	X5	Y5	Z5	X6	Y6	Z6	X7	Y7	Z7	X8	Y8	Z8	X9	Y9	Z9	X10	Y10	Z10	X11	Y11	Z11	X12	Y12	Z12	X13	Y13	Z13	X14	Y14	Z14	X15	Y15	Z15	X16	Y16	Z16	X17	Y17	Z17	X18	Y18	Z18	X19	Y19	Z19	X20	Y20	Z20	X21	Y21	Z21	X22	Y22	Z22
1	0.0333333333333333	-2.5743641367019423	0.8363053079388285	0.38693040803345774	-2.55690443745382	0.8038980181061	0.47720653107232347	-2.5811578975531555	0.4533423725486196	0.4983126525536291	-2.573670012869599	0.08660121428264324	0.502840050773498	-2.384685511664977	-0.0007117346461898628	0.5356722017082012	-2.435969460093154	-0.0003989141640797695	0.6014430755878565	-2.6496375456090013	-0.011799868237922251	0.4912485872573228	-2.5699895767357646	0.8043191281970242	0.3067657717559523	-2.5488357766653467	0.461035750978935	0.2899504369717819	-2.568564157254914	0.088300387453533	0.28098089749003446	-2.379905117030355	0.001747865533638859	0.271136181878737	-2.4224194347505117	-0.004914112784234543	0.20697175514359073	-2.612689910362005	-0.0019086649413536869	0.29025927940607027	-2.5647121614636013	1.5327492552309219	0.3552513461761017	-2.5257527102091903	1.7883654763212364	0.3274660434606996	-2.4393201910124054	1.665580777632497	0.37181060604483046	-2.5886627972369505	1.4122353966800067	0.5347069770019457	-2.5451972459851953	1.1046638708477574	0.6211035456377066	-2.471745137361376	0.8604150459025705	0.6091659448545166	-2.577879859173635	1.40898620878313	0.20530533816883526	-2.5533931678521977	1.1077730132333485	0.14877871132054116	-2.4873781461115905	0.8634080284482304	0.16301160917639385
2	0.0666666666666666	-2.5740682744784373	0.835674652329761	0.38584580738237034	-2.5575185767431154	0.8043304547691661	0.47725205467643067	-2.581684516096624	0.45230193805119584	0.49902765539346017	-2.5730050129499276	0.08755474758839	0.5051575722386311	-2.383797603808656	0.0005667378293207283	0.5376633376108395	-2.438095473883546	0.0010726808612116006	0.5996761899156334	-2.6500610795257247	-0.01083136813707798	0.4910789222729106	-2.5693812760715335	0.8044437885865426	0.30416033089381056	-2.5472465682206864	0.46169278768402183	0.28807080435697335	-2.5683665782072707	0.0863993837968378	0.2800119541442114	-2.380156549975746	0.0007001926553429785	0.271558162670211	-2.4213226396355774	-0.004408729908486044	0.20725044172033683	-2.6128417353601776	-0.003204529087882774	0.290389030398061	-2.563519011363905	1.5321781308988605	0.3536557970792903	-2.5229116290607005	1.788302501891047	0.32217565809661286	-2.4346387293352336	1.6651740312776566	0.3623203974212473	-2.589656646044674	1.4118208579995237	0.5354197095599446	-2.5439253262741213	1.102779062953069	0.6194820703563211	-2.4704624945699187	0.8595427990866198	0.6077813807047817	-2.5776856368376126	1.4084778855200155	0.20125724892707944	-2.552329803287107	1.1059247840806723	0.1475185360060381	-2.486031818776214	0.862344719489652	0.16216199021321234
3	0.1	-2.5736893238174523	0.8351598592376106	0.38460964588399005	-2.557961448431536	0.8048367548703887	0.4771084373835367	-2.5823648413437743	0.45139527866030515	0.4994720163864454	-2.5726050401156977	0.0884649413636253	0.507133577836826	-2.383351044538154	0.0015547924674947867	0.5394024342908759	-2.4402666299653917	0.0024133933837283293	0.5981999468015422	-2.650547345711853	-0.010141524209291647	0.4910235416820319	-2.5687740322403223	0.80448390752174	0.30173295617542717	-2.5453299137385907	0.4622911513463723	0.286321060893923	-2.5681585286945694	0.08478840583584045	0.2793048461495087	-2.3803255947456994	-5.4424195857208835e-06	0.27192902774029987	-2.42033300513363	-0.004015025329945935	0.20752092495127814	-2.6130525643108347	-0.0042637998980526864	0.2904236369593226	-2.5622810948344044	1.5316741431019512	0.35167422596508935	-2.5202666751709843	1.7882333241435404	0.31700492615633963	-2.4304979155477495	1.6652045242047229	0.35483794758929393	-2.59007854649412	1.4115670948610979	0.5352378401256351	-2.542582110153176	1.1012369143354144	0.6178580112007701	-2.469321247656572	0.8588370973260702	0.6066453872177365	-2.5784767830389286	1.4085623835038819	0.19595500520591252	-2.5513676710527844	1.104325552409536	0.1459548853712161	-2.4846851372871566	0.8612981037175654	0.16110606514754108
4	0.1333333333333333	-2.5731403612632326	0.8348021792567806	0.38310439593405793	-2.558046769133086	0.805405067790674	0.4766080673247297	-2.583138897152272	0.4506530551863744	0.49935676319544314	-2.5727018593540487	0.08918739910933456	0.508473827706071	-2.3836662183315522	0.0020712625230173043	0.5407257846217477	-2.44328338357479	0.003739326714030789	0.5967107922966272	-2.6511434725372967	-0.00985975142007081	0.4911436670606484	-2.5681826489944077	0.8044340802820972	0.299504867646698	-2.543031497154685	0.46280408641244536	0.2847388623058918	-2.56794472178205	0.08361271707117268	0.27896845784931923	-2.380231696640034	-0.00021592814162548033	0.2721692337910383	-2.4194694667918655	-0.003726539997865381	0.20781966584380315	-2.613373206526748	-0.004966515855322214	0.29036176003321307	-2.560943911879975	1.531287808155471	0.3491269735563745	-2.517990964464062	1.788090511020938	0.31202238247297226	-2.4271094126696555	1.6658720451214695	0.3501361325121588	-2.589506606160714	1.411529899783439	0.5337472824491765	-2.5410734600767104	1.1001983644831361	0.6161102383025545	-2.4683361056041218	0.8583465279885749	0.6057820981089008	-2.581058688724178	1.4095936775828526	0.18834689431632426	-2.5505957392368837	1.103108593149404	0.14389915095717093	-2.4834624416423896	0.8603048327246879	0.15970998565357997
5	0.1666666666666666	-2.5723355430309636	0.8345652629082227	0.38126105349667366	-2.5575968711022083	0.8059931101697837	0.4756244875324857	-2.583782472647207	0.4500083211984911	0.4983591692187138	-2.573487476120251	0.08951968991834852	0.5091114501884537	-2.384762700710894	0.0021450469910233097	0.5416002294695614	-2.4478393572534185	0.005264048004585152	0.5948208466863484	-2.651918554529794	-0.009999792081107258	0.49142514055985254	-2.567592663992438	0.8043539913925898	0.2973445610050874	-2.5406056108440684	0.46317226070448825	0.28332780398956775	-2.5677718291117175	0.08281907494578927	0.27893433316672217	-2.3797213060257185	-1.671569556248032e-05	0.27222042479639724	-2.418686941607995	-0.003477377900201172	0.20817425266505482	-2.6138470903457733	-0.005363615315884728	0.29026337441718864	-2.559423451270624	1.5310567737397798	0.34610241450186185	-2.516164591613562	1.7878002679066576	0.30738517067073184	-2.4243470231713227	1.6669586879822116	0.3474534287174831	-2.5878109386448083	1.4116438557149675	0.531110098967308	-2.539328717969318	1.0996365465832694	0.6140656288723518	-2.467413572915021	0.8579797247988951	0.6050045565986575	-2.585598485678972	1.4115404428515572	0.17813559241381674	-2.5500621090923494	1.1022330742500108	0.14132369217072366	-2.482562489976302	0.8593858953470336	0.15788501518062947
6	0.2	-2.5711996501140137	0.8343807976171509	0.3790174895779477	-2.556472334893261	0.806592493692272	0.47406913953691127	-2.583969469920929	0.44942474206740923	0.4961828480746466	-2.5750206990387263	0.08934246741230971	0.5092604663918663	-2.386278181857712	0.001982303904010655	0.5420882115271836	-2.453323286031828	0.006985931241177112	0.5927272898960326	-2.652875606614708	-0.010494693440609566	0.49179266035101865	-2.5669649780760726	0.8043260770877524	0.29504611106073836	-2.5384052094860756	0.4632874511836904	0.28203650926698215	-2.567719793025154	0.08220719203997953	0.27902946801168566	-2.3788601335527524	0.00036333286529773815	0.27209383721294195	-2.4179648142601895	-0.0032917635843308798	0.20856575231513955	-2.614485905674789	-0.005630637576670661	0.2901496173342458	-2.5576266022950302	1.5309822251723637	0.3428008130839509	-2.5146730384938096	1.787364934449334	0.30327673397601923	-2.421928356864893	1.6679608818504768	0.3451770916516544	-2.5851924964530744	1.4118051271768144	0.5277670975771936	-2.5373296294403733	1.0994565883263636	0.6116299372026803	-2.4663999717656795	0.8576047969599206	0.6040493533344199	-2.5913935731765987	1.4140448377062838	0.16601158020665863	-2.5497525770209535	1.1015220030029682	0.13827815190572298	-2.482114842274194	0.8585205468653834	0.15550993367832458
7	0.2333333333333333	-2.5696971207234567	0.8341811847109363	0.37628783564634066	-2.554597802640256	0.8072203194611597	0.471914018125884	-2.5832757091409078	0.44902430314838876	0.49262707274660644	-2.5772365722775197	0.0886717315785789	0.5091931658864599	-2.3876517944540114	0.001796664468349488	0.5422960015979726	-2.458092200344722	0.008658579150244965	0.5910195241320766	-2.6538087307458307	-0.011117710073749756	0.49214709962196374	-2.5663030586685243	0.804420029698075	0.29241399997170797	-2.536647809000115	0.4631129622610695	0.28065605998757387	-2.567838793583742	0.08154836161902046	0.2790823348927393	-2.377945471749334	0.0007180752941465068	0.2718538199660185	-2.4173763790791276	-0.0032793828913666896	0.20893822319455893	-2.615252699049229	-0.005944046667112072	0.28996651021485154	-2.5555053366546803	1.531010279983464	0.339359536616743	-2.5131783896654984	1.7868745784834972	0.2995641734391526	-2.419577446259588	1.6684521706276867	0.3419272102408829	-2.5820640167589817	1.4119562534062593	0.5240957754559821	-2.535100817259547	1.099581083441954	0.6088011064169404	-2.4651350586158993	0.8571661547205578	0.6027203260109518	-2.597454652074003	1.4167060954736337	0.15295481435195124	-2.5496030914194465	1.1007749271677052	0.134812236046821	-2.482075591889046	0.8576778744234086	0.15249651780251725
8	0.2666666666666666	-2.5678169285595818	0.8339066533806346	0.37295644101054926	-2.551944473853892	0.8078691661166435	0.46914548006371265	-2.5810759001554087	0.4490856588447198	0.48774698731259364	-2.579980321439466	0.08758023888209314	0.5089706353448998	-2.388480441468464	0.0016464015802198032	0.5422911267138775	-2.460670049384963	0.009930587802089627	0.5900607288060646	-2.654197300922996	-0.011450391121795005	0.492409103129889	-2.5655902971597246	0.8046431046354808	0.2892547890900944	-2.5353232916343393	0.4627034590224366	0.27888110167513364	-2.5681286919495943	0.08072419488769386	0.2789746351972445	-2.377350485445206	0.000950641116754526	0.2715705008189841	-2.4170482018157515	-0.003488325989626908	0.20921258898180448	-2.6160627950255733	-0.0063821420381031235	0.2895964396354489	-2.5530509145805835	1.5310458472915287	0.33575531975328515	-2.5112309500859484	1.7864459165162625	0.2958799731570947	-2.4170965196582475	1.668329701783015	0.3373057577719578	-2.5788558069285528	1.4120920957328627	0.520239389867304	-2.5326858651318704	1.0999218695254722	0.6055386919866227	-2.463500762023919	0.8567322688018173	0.6008890841354977	-2.6029072574408305	1.4191967750491747	0.13980915901652663	-2.5495253554460087	1.0998894241359187	0.13091704720531683	-2.4822284740531715	0.8568570954168631	0.14883846523212435
9	0.3	-2.5655149792194334	0.8335437052225438	0.3689374346318887	-2.54851748094387	0.8084391351949546	0.46568577572677927	-2.5764676838959235	0.44990195102054314	0.4821826509776882	-2.5829132531478503	0.08616251810456949	0.5084112416019606	-2.3887866962876356	0.001383616978419713	0.5420030119563097	-2.4604185132853407	0.010399736801853689	0.5897663311649847	-2.6532343440330153	-0.011018830545787353	0.49256135324231465	-2.5646475669428406	0.8049170064187497	0.28536846557577333	-2.5342431375144034	0.4620651470316724	0.2765099494394284	-2.5685748231132273	0.07979620777338936	0.2786270976171181	-2.3773216522971197	0.0010357533625564863	0.27130203898716704	-2.417027497231785	-0.0038513102246588303	0.20933453716517098	-2.616794572639292	-0.006904753022726285	0.2888995507337896	-2.550274912403087	1.5309726022080923	0.3318244431031253	-2.508498618946956	1.7861330068102128	0.29214361152970786	-2.4143891399936024	1.6678098587027708	0.33193571306612624	-2.5758600216550587	1.4122072298351804	0.516152732523143	-2.530123376957536	1.1003216033155205	0.6017146526896664	-2.461414126540182	0.85645828827798	0.5984040253829028	-2.6068080297023504	1.4211415773163059	0.12762573989106288	-2.5494205216578485	1.09890639981836	0.12651381193430317	-2.4823249795180065	0.8560745611278903	0.14453359352913683
